<svg xmlns="http://www.w3.org/2000/svg" xmlns:xlink="http://www.w3.org/1999/xlink" preserveAspectRatio="xMidYMid meet" version="1.0" viewBox="133.2 108.1 165.7 209.8" zoomAndPan="magnify" style="fill: rgb(0, 0, 0);" original_string_length="1583"><g id="__id221_she8t1dirso"><path d="M210.589,243.075c0,0-69.83,74.824-73.592,68.339s49.867-92.857,49.867-92.857 S212.651,229.233,210.589,243.075z" style="fill: rgb(228, 242, 241);"/></g><g id="__id222_she8t1dirso"><path d="M239.623,137.694c0,0-9.603-17.042-5.944-23.332c3.658-6.291,65.255,19.185,53.137,38.816 c-7.197,12.322-19.723,2.506-19.723,2.506L239.623,137.694z" style="fill: rgb(255, 145, 77);"/></g><g id="__id223_she8t1dirso"><path d="M236.114,230.642c0,0,40.01-76.2,29.729-85.123c-10.281-8.922-23.306-10.606-23.306-10.606 s-63.63,60.148-61.878,70.493S222.936,247.981,236.114,230.642z" style="fill: rgb(255, 145, 77);"/></g><g id="__id224_she8t1dirso"><path d="M153.399,196.364c0,0-1.382,23.237,34.35,48.249c35.73,25.013,64.674,27.843,64.26,16.517 c-0.416-11.326-18.563-41.861-18.563-41.861l-44.351-28.626C189.095,190.643,148.655,179.63,153.399,196.364z" style="fill: rgb(255, 145, 77);"/></g><path d="M199.853,211.223c0,0,14.145,20.617,38.064,15.927" stroke="#842C42" stroke-linecap="round" stroke-linejoin="round" stroke-miterlimit="10" stroke-width="1.931" style="fill: none;"/><path d="M189.325,190.355c0,0-1.24,1.854,0.716,6.59" stroke="#842C42" stroke-linecap="round" stroke-linejoin="round" stroke-miterlimit="10" stroke-width="1.931" style="fill: none;"/><path d="M239.489,137.821c0,0,9.627,8.857,17.699,13.847" stroke="#842C42" stroke-linecap="round" stroke-linejoin="round" stroke-miterlimit="10" stroke-width="1.931" style="fill: none;"/></svg>